<svg class="track-svg" width="100%" height="100%" viewBox="30 15 220 220" xmlns="http://www.w3.org/2000/svg">
    <defs>
        <linearGradient id="rbGradient" x1="0%" y1="0%" x2="100%" y2="100%">
            <stop offset="0%" style="stop-color:#0a1428;stop-opacity:1" />
            <stop offset="50%" style="stop-color:#cc0000;stop-opacity:1" />
            <stop offset="100%" style="stop-color:#fcd700;stop-opacity:1" />
        </linearGradient>
    </defs>
    <path id="track-path" d="M191.6,112.47c-2.89,2.71-6.09,5.65-8.76,8.31-3.59,3.56-8.77,7.86-9.94,10.35s3.17,3.35,3,4.6-1.86,2.12-4.16,2.87-5.79-.15-9.64,1.58-9,5.85-13.5,8.78-10.9,6.4-13.15,8.89.82,3.73-.29,6-3.57,6.47-6.37,7.79-7-1-10.39.14a26.72,26.72,0,0,0-9.92,6.51c-2,2.29.26,5-1.82,7.21s-7.9,5.35-10.68,6.26-4,.08-6-.83-3.5-4.18-6.12-4.63-6,1.24-9.58,1.87-7.81.66-11.87,1.9-8.3,3.51-12.51,5.57-8.61,4.54-12.75,6.77-9.32,4.3-12.07,6.62-4.3,5.33-4.38,7.3,2.17,3.8,3.91,4.47a7.2,7.2,0,0,0,6.51-.46c2.42-1.46,5.07-5.31,8.05-8.28s5.9-7.47,9.82-9.55,8.88-1.9,13.76-2.86,11.6-3.31,15.48-2.9,3.72,5.34,7.87,5.33a36.34,36.34,0,0,0,17-5.37c5.34-3.49,9.94-11.62,15-15.56s11.11-4.69,15.54-8.09,7.53-8.4,11-12.31,6.71-8.42,10-11.16,5.95-3.64,9.9-5.2,11-2.1,13.74-4.18.69-5.49,2.93-8.31,6.33-7.17,10.52-8.59,9.69.32,14.57,0,10,.1,14.72-1.68,9.29-5.58,13.47-9a64.88,64.88,0,0,0,11.57-11.33c3.33-4.46,6.68-11.52,8.47-15.46s1.44-4.23,2.23-8.14,2.51-12.16,2.57-15.31-1-3.08-2.16-3.59a5.82,5.82,0,0,0-4.76.51c-1.81.91-3.57,3-6.12,5s-6.2,4.61-9.14,6.81-4.77,3.4-8.46,6.39-9.5,7.69-13.71,11.53-8.1,8-11.53,11.47Z" />
</svg>