<svg class="track-svg" width="100%" height="100%" viewBox="0 50 280 160" xmlns="http://www.w3.org/2000/svg">
    <defs>
        <linearGradient id="rbGradient" x1="0%" y1="0%" x2="100%" y2="100%">
            <stop offset="0%" style="stop-color:#0a1428;stop-opacity:1" />
            <stop offset="50%" style="stop-color:#cc0000;stop-opacity:1" />
            <stop offset="100%" style="stop-color:#fcd700;stop-opacity:1" />
        </linearGradient>
    </defs>
    <path id="track-path" d="M23.09,171.34c.69.66,2.1,1.08,3.58,1.83s3.16,1.65,5.28,2.71a72.29,72.29,0,0,1,7.49,3.63c6.33,3.36,20.65,12.26,30.47,16.56a160.36,160.36,0,0,0,28.49,9.26,166.61,166.61,0,0,0,27.46,3.8c9.2.63,20.94,0,27.77-.07s2.09-.32,13.22-.07,42,1.28,53.55,1.57,11.76.14,15.73.16,6.26,0,8.12-.05a12.23,12.23,0,0,0,3-.16,5,5,0,0,0,2.6-1.2c.61-.69.76-2.06,1.07-3s-.18-1.1.82-2.54,4.34-3.15,5.24-6.09.2-8.07.21-11.54-.07-5.18-.12-9.28-.14-8.75-.2-15.37-.14-18.34-.18-24.35,0-7.38,0-11.74.55-10.7.18-14.38a18.19,18.19,0,0,0-2.37-7.76,21.71,21.71,0,0,0-5-6.65c-3.06-3.08-9.93-8.78-13.32-11.77s-5.06-4.44-7.08-6.2-3.78-3.3-5-4.35a13,13,0,0,0-2.36-1.89,5.82,5.82,0,0,0-3.12-1,4.81,4.81,0,0,0-3.1,1.88A10.07,10.07,0,0,0,213.9,78a12.37,12.37,0,0,0,.93,5.06,15.47,15.47,0,0,0,2.67,4.26c1.26,1.6,3.84,3.82,4.92,5.32a7.53,7.53,0,0,1,1.56,3.7,10,10,0,0,1-.3,4.1,13.53,13.53,0,0,1-2,4.41,11.7,11.7,0,0,1-3.92,3.83,23.27,23.27,0,0,1-6.84,1.93c-2.26.35-3.18.09-6.74.16s-8.28,0-14.61.21-14.54.88-23.41,1.13-22.3.28-29.79.37l-15.13.22-4.93,0a22.59,22.59,0,0,1-4.21,0c-1.14-.25-2.06-.27-2.61-1.53s-.49-1.76-.71-6,.29-14.64-.63-19.43a15.73,15.73,0,0,0-4.92-9.34c-2.48-2.6-7.52-5.09-10-6.27s-3.37-.77-4.76-.82-2.8-.1-3.59.51-.7,2.29-1.14,3.18a5.67,5.67,0,0,1-1.52,2.2,4.43,4.43,0,0,1-2.61.82,8.17,8.17,0,0,1-3-1c-1.18-.53-3-1.72-4-2.25a7.66,7.66,0,0,0-2-1,3.41,3.41,0,0,0-2.12.05,4,4,0,0,0-2,1.65c-.42.79-.41,1.42-.51,3.07s-.1,4.51-.15,6.84,0,3.31-.1,7.17.1,10.81-.29,16a117.84,117.84,0,0,1-2.08,15,17.13,17.13,0,0,1-2.95,6.73,24.45,24.45,0,0,1-4.7,5.32c-1.68,1.42-2.06,1.67-5.41,3.22S39.06,141.17,35.65,143a14,14,0,0,0-5.78,4.64,31.92,31.92,0,0,0-5.21,8.61c-1.16,3.13-1.44,8-1.79,10.19a9.8,9.8,0,0,0-.32,2.8C22.58,170,22.4,170.68,23.09,171.34Z"/>
</svg>