<?xml version="1.0" standalone="no"?>
<!DOCTYPE svg PUBLIC "-//W3C//DTD SVG 20010904//EN"
 "http://www.w3.org/TR/2001/REC-SVG-20010904/DTD/svg10.dtd">
<svg version="1.0" xmlns="http://www.w3.org/2000/svg"
 width="300.000000pt" height="212.000000pt" viewBox="0 0 300.000000 212.000000"
 preserveAspectRatio="xMidYMid meet">

<g transform="translate(0.000000,212.000000) scale(0.100000,-0.100000)"
fill="#000000" stroke="none">
<path d="M2055 2064 c-49 -6 -128 -23 -175 -37 -72 -21 -86 -23 -93 -11 -14
25 -47 16 -68 -21 -16 -26 -45 -47 -122 -88 -154 -80 -307 -183 -501 -336
l-69 -54 6 87 c7 100 3 116 -28 116 -42 0 -65 -44 -135 -250 l-40 -119 -164
-166 -165 -165 -5 33 c-3 17 -10 113 -14 213 -5 99 -12 185 -16 192 -4 7 -22
12 -39 12 l-33 0 -52 -217 c-47 -199 -92 -418 -108 -533 -3 -25 -17 -61 -29
-81 -80 -124 -155 -317 -155 -395 0 -51 40 -136 76 -161 92 -64 197 -55 354
29 63 34 307 194 415 271 17 12 152 110 300 218 490 356 499 361 507 339 4
-11 19 -26 34 -32 23 -11 28 -10 44 10 10 12 24 45 31 73 16 61 17 61 306 253
276 182 433 275 643 378 102 50 188 96 192 102 4 6 1 17 -6 24 -10 10 -26 8
-87 -15 -82 -30 -230 -101 -329 -158 -36 -21 -80 -46 -99 -57 -54 -31 -295
-184 -423 -269 -65 -43 -118 -74 -118 -70 0 5 43 71 96 147 273 394 359 542
359 620 0 98 -109 142 -290 118z m205 -54 c53 -53 6 -163 -196 -462 -76 -111
-152 -224 -168 -250 -17 -26 -34 -47 -38 -47 -4 -1 -4 23 -2 52 3 28 11 122
19 207 13 148 13 156 -5 175 -14 15 -20 39 -22 90 -3 67 -4 70 -29 73 l-26 3
-6 -133 c-9 -184 -23 -282 -58 -428 -25 -101 -30 -136 -25 -186 l6 -62 -132
-93 c-182 -128 -200 -139 -209 -139 -4 0 11 39 33 88 99 213 193 474 278 772
22 80 50 172 61 206 l20 61 92 32 c126 43 207 59 305 60 69 1 85 -2 102 -19z
m-641 -322 c-102 -352 -178 -558 -306 -831 -26 -54 -51 -96 -57 -94 -6 2 -17
21 -24 43 -21 61 -2 362 44 692 12 85 13 116 4 127 -9 11 6 25 72 72 120 85
296 191 319 193 4 0 -20 -91 -52 -202z m-438 -249 c-16 -52 -46 -151 -65 -220
-19 -70 -45 -151 -56 -180 -36 -91 -123 -269 -131 -269 -10 0 -12 -12 41 255
21 110 44 250 50 310 7 61 14 113 17 118 2 4 41 37 86 73 l82 67 3 -30 c2 -16
-10 -72 -27 -124z m-230 8 c-18 -18 -21 -3 -8 39 l12 39 3 -34 c2 -18 -1 -38
-7 -44z m9 -83 c0 -39 -34 -241 -66 -392 -35 -170 -44 -298 -22 -320 18 -18
53 -15 71 6 22 24 159 311 187 392 28 80 45 100 36 45 -12 -71 -10 -288 3
-320 6 -16 23 -40 37 -51 l26 -21 -178 -130 c-435 -315 -536 -382 -664 -441
-98 -45 -183 -54 -222 -23 -63 50 -62 192 1 331 l21 45 -3 -60 c-2 -59 -1 -60
25 -63 32 -4 28 -15 58 172 l20 130 82 108 c46 59 85 108 88 108 3 -1 14 -15
25 -33 41 -66 129 -83 189 -36 54 43 129 206 187 405 21 74 39 118 57 137 29
31 42 34 42 11z m-521 -365 c8 -46 7 -47 -53 -122 -34 -42 -64 -76 -67 -76 -4
-1 0 32 8 72 29 151 76 362 82 372 3 6 9 -37 14 -95 4 -58 11 -126 16 -151z
m336 144 c-55 -180 -142 -328 -189 -321 -14 2 -30 21 -50 60 l-28 58 55 62
c98 112 227 242 233 236 3 -4 -6 -46 -21 -95z"/>
</g>
</svg>
